<?xml version="1.0" encoding="UTF-8"?>
<svg version="1.1" xmlns="http://www.w3.org/2000/svg" width="500" height="500">
<path d="M0 0 C165 0 330 0 500 0 C500 165 500 330 500 500 C335 500 170 500 0 500 C0 335 0 170 0 0 Z " fill="#000000" transform="translate(0,0)"/>
<path d="M0 0 C12.54 0 25.08 0 38 0 C38 0.66 38 1.32 38 2 C36.89591797 2.16435547 36.89591797 2.16435547 35.76953125 2.33203125 C28.35296249 3.35352278 28.35296249 3.35352278 22 7 C16.17697699 19.37734513 17.70457276 35.01773767 17.734375 48.34765625 C17.7330244 50.49368839 17.73108059 52.63972024 17.72857666 54.78575134 C17.72564464 59.26125023 17.72986119 63.73666874 17.73925781 68.2121582 C17.75065804 73.91644461 17.74407688 79.62054288 17.73211288 85.32482243 C17.72484806 89.74919525 17.72720323 94.17352426 17.73236847 98.59789848 C17.73369185 100.70000672 17.73210387 102.80211908 17.72740936 104.90422249 C16.8483575 124.27313207 16.8483575 124.27313207 23 142 C25.71177187 144.71177187 27.13945454 144.29920463 30.9375 144.3125 C45.41100938 144.07449779 61.41916478 142.4004746 73.5 133.75 C77.62010586 129.21788355 79.6430245 123.92501182 81 118 C81.66 118 82.32 118 83 118 C83 128.23 83 138.46 83 149 C55.61 149 28.22 149 0 149 C0 141.26014702 0.00431115 134.75449617 0.77072144 127.31893921 C1.35379804 118.87856972 1.11945202 110.3818439 1.09765625 101.92578125 C1.09578841 99.78915948 1.09436624 97.65253727 1.09336853 95.51591492 C1.08957218 89.92484327 1.07976686 84.33379809 1.06866455 78.74273682 C1.05838811 73.02445839 1.05385762 67.30617564 1.04882812 61.58789062 C1.0381417 50.39191553 1.02110035 39.19595998 1 28 C0.37383789 28.95519531 -0.25232422 29.91039063 -0.89746094 30.89453125 C-2.60722336 33.41986543 -3.93153541 35.10921334 -6.25 37 C-6.84683594 37.49371094 -7.44367188 37.98742187 -8.05859375 38.49609375 C-10.10309292 40.07986071 -12.20357136 41.56596443 -14.3125 43.0625 C-17.44076371 45.35575328 -19.08148092 47.09629393 -20 51 C-20.67844036 48.88929666 -21.11681652 47.45892204 -20.5625 45.28125 C-19.82216979 42.27879969 -19.6533073 39.33296145 -19.4375 36.25 C-19.31181641 34.49429688 -19.31181641 34.49429688 -19.18359375 32.703125 C-19.12300781 31.81109375 -19.06242188 30.9190625 -19 30 C-18.67 30 -18.34 30 -18 30 C-17.67 32.97 -17.34 35.94 -17 39 C-15.8553125 37.2675 -15.8553125 37.2675 -14.6875 35.5 C-11.92515293 31.61940159 -9.31942642 30.09695308 -5.125 27.9375 C-2.05796328 26.14496539 -2.05796328 26.14496539 0 23 C1.44719017 15.3897512 0.47953275 7.67252408 0 0 Z " fill="#FCFCFC" transform="translate(212,71)"/>
<path d="M0 0 C7.36654995 7.17886715 9.7054125 13.76537776 11.421875 23.8046875 C11.82431969 26.88266124 11.82431969 26.88266124 13 29 C13.99 27.68 14.98 26.36 16 25 C15.835 25.94875 15.67 26.8975 15.5 27.875 C14.9473365 30.80168901 14.9473365 30.80168901 15 33 C15.47308594 32.55269531 15.94617188 32.10539062 16.43359375 31.64453125 C22.42967936 26.16272978 28.77523751 22.59610926 36 19 C34.03840961 27.500225 28.67644866 33.13562268 21.55371094 37.7409668 C19.68600187 38.89965567 17.8022681 40.02747167 15.9140625 41.15234375 C12.94243751 42.68520024 12.94243751 42.68520024 12 45 C11.91691362 46.37548156 11.89263984 47.75485796 11.90234375 49.1328125 C11.90717773 50.34130859 11.90717773 50.34130859 11.91210938 51.57421875 C11.92048828 52.41597656 11.92886719 53.25773437 11.9375 54.125 C11.94201172 54.97449219 11.94652344 55.82398438 11.95117188 56.69921875 C11.96297126 58.79950909 11.98090694 60.8997633 12 63 C12.66 63 13.32 63 14 63 C14.13535156 62.45472656 14.27070313 61.90945312 14.41015625 61.34765625 C16.25625587 54.88078033 19.27059147 49.81539778 24 45 C24.99 44.67 25.98 44.34 27 44 C28 45 28 45 28.01953125 47.00390625 C27.39478303 54.72485125 25.55181458 60.07474914 20.4375 65.9375 C18 68 18 68 15 69 C16.31733183 77.03572418 19.11751507 85.11751507 25 91 C24.505 92.485 24.505 92.485 24 94 C23.05796437 92.62810346 22.12161203 91.25230387 21.1875 89.875 C20.630625 89.05644531 20.07375 88.23789063 19.5 87.39453125 C18 85 18 85 16.6875 81.5625 C15.3075677 78.88381216 15.3075677 78.88381216 13.13671875 78.40234375 C11.58831742 78.12689412 10.03730184 77.86585879 8.484375 77.6171875 C2.61098126 76.15807396 -2.80581998 72.12274154 -6 67 C-6 66.01 -6 65.02 -6 64 C1.35521031 64.31298767 6.83966442 67.83966442 12 73 C11.90911327 69.07089691 11.49489006 65.65361265 10 62 C7.37940871 60.02700128 4.7374117 58.80670774 1.76171875 57.4375 C-5.29129341 53.76634233 -7.83557803 46.64743286 -10.43359375 39.515625 C-11.02495339 36.88917252 -10.89545538 35.50493399 -10 33 C-0.6408278 38.05638394 4.49996988 44.51903152 9 54 C11.85950449 39.58471089 11.85950449 39.58471089 8.375 26 C7.29336688 24.63125146 6.17172462 23.29246439 5 22 C4.20986438 20.86739073 3.43610539 19.7229775 2.6875 18.5625 C2.130625 17.716875 1.57375 16.87125 1 16 C-0.14077657 12.57767028 -0.09815117 9.91326783 -0.0625 6.3125 C-0.05347656 5.13300781 -0.04445312 3.95351562 -0.03515625 2.73828125 C-0.02355469 1.83464844 -0.01195312 0.93101563 0 0 Z " fill="#A5A5A5" transform="translate(163,121)"/>
<path d="M0 0 C9.58495215 3.93667677 15.33771191 10.59361535 19.6015625 19.95703125 C20.1173443 22.60167713 19.3989319 23.76070254 18 26 C13.12262664 25.58193943 11.1850091 23.5933436 8 20 C7.319375 19.29875 6.63875 18.5975 5.9375 17.875 C2.33506182 12.52944658 0 6.45693035 0 0 Z " fill="#707070" transform="translate(152,154)"/>
<path d="M0 0 C7.35521031 0.31298767 12.83966442 3.83966442 18 9 C18 6.69 18 4.38 18 2 C18.66 2 19.32 2 20 2 C20 2.66 20 3.32 20 4 C21.32 3.67 22.64 3.34 24 3 C23.67 3.66 23.34 4.32 23 5 C22.34 5 21.68 5 21 5 C22.31733183 13.03572418 25.11751507 21.11751507 31 27 C30.67 27.99 30.34 28.98 30 30 C29.05796437 28.62810346 28.12161203 27.25230387 27.1875 25.875 C26.630625 25.05644531 26.07375 24.23789063 25.5 23.39453125 C24 21 24 21 22.6875 17.5625 C21.3075677 14.88381216 21.3075677 14.88381216 19.13671875 14.40234375 C17.58831742 14.12689412 16.03730184 13.86585879 14.484375 13.6171875 C8.61098126 12.15807396 3.19418002 8.12274154 0 3 C0 2.01 0 1.02 0 0 Z " fill="#6E6E6E" transform="translate(157,185)"/>
<path d="M0 0 C0.66 0.33 1.32 0.66 2 1 C1.71717961 7.90081763 0.60541325 13.08657599 -3 19 C-3.45375 19.804375 -3.9075 20.60875 -4.375 21.4375 C-6.69391821 23.66722904 -8.87021542 23.72179693 -12 24 C-12 23.34 -12 22.68 -12 22 C-12.99 21.67 -13.98 21.34 -15 21 C-14.67 20.34 -14.34 19.68 -14 19 C-13.34 19 -12.68 19 -12 19 C-11.86464844 18.45472656 -11.72929687 17.90945312 -11.58984375 17.34765625 C-9.72509818 10.81546368 -6.61206029 5.97880243 -2 1 C-1.34 0.67 -0.68 0.34 0 0 Z " fill="#585858" transform="translate(189,165)"/>
<path d="M0 0 C6.78383313 10.1757497 5.71390568 23.53166734 3.4375 34.9453125 C3.2209375 35.96238281 3.2209375 35.96238281 3 37 C-3.92028989 23.8763872 -3.96521202 13.94904942 0 0 Z " fill="#ADADAD" transform="translate(190,63)"/>
<path d="M0 0 C0.56976563 0.22558594 1.13953125 0.45117188 1.7265625 0.68359375 C-1.86847112 9.2217986 -7.23160308 13.52241358 -14.6484375 18.80859375 C-17.75664627 21.0757578 -19.36235356 22.81148699 -20.2734375 26.68359375 C-20.95187786 24.57289041 -21.39025402 23.14251579 -20.8359375 20.96484375 C-20.09560729 17.96239344 -19.9267448 15.0165552 -19.7109375 11.93359375 C-19.62714844 10.763125 -19.54335937 9.59265625 -19.45703125 8.38671875 C-19.39644531 7.4946875 -19.33585938 6.60265625 -19.2734375 5.68359375 C-18.9434375 5.68359375 -18.6134375 5.68359375 -18.2734375 5.68359375 C-17.9434375 8.65359375 -17.6134375 11.62359375 -17.2734375 14.68359375 C-16.4690625 13.50796875 -15.6646875 12.33234375 -14.8359375 11.12109375 C-5.86192505 -0.81583493 -5.86192505 -0.81583493 0 0 Z " fill="#888888" transform="translate(212.2734375,95.31640625)"/>
<path d="M0 0 C4.47862456 4.28763843 7.87052442 8.89394217 10 14.75 C10 17.70210422 8.96777119 18.87480712 7 21 C6.34 20.34 5.68 19.68 5 19 C4.01 18.67 3.02 18.34 2 18 C-0.16863489 14.07204211 -0.21433256 10.60946168 -0.125 6.1875 C-0.10695312 5.02605469 -0.08890625 3.86460938 -0.0703125 2.66796875 C-0.04710937 1.78753906 -0.02390625 0.90710938 0 0 Z " fill="#7C7C7C" transform="translate(163,121)"/>
<path d="M0 0 C0.66 0 1.32 0 2 0 C2 0.66 2 1.32 2 2 C3.32 1.67 4.64 1.34 6 1 C5.67 1.66 5.34 2.32 5 3 C4.34 3 3.68 3 3 3 C4.31733183 11.03572418 7.11751507 19.11751507 13 25 C12.67 25.99 12.34 26.98 12 28 C11.05796437 26.62810346 10.12161203 25.25230387 9.1875 23.875 C8.3521875 22.64716797 8.3521875 22.64716797 7.5 21.39453125 C6 19 6 19 4.6875 15.5625 C2.65215075 12.47178447 1.87821014 12.47270949 -1.625 11.75 C-2.42164063 11.64171875 -3.21828125 11.5334375 -4.0390625 11.421875 C-4.68617188 11.28265625 -5.33328125 11.1434375 -6 11 C-6.33 10.34 -6.66 9.68 -7 9 C-6.34 8.34 -5.68 7.68 -5 7 C-3.68 7.66 -2.36 8.32 -1 9 C-0.08941469 5.92677456 0.08886184 3.19902639 0 0 Z " fill="#9F9F9F" transform="translate(175,187)"/>
<path d="M0 0 C6.26223021 2.69923716 9.94211018 5.52799707 14 11 C11.3493418 11 9.52697187 10.63174297 7 10 C6.01 10 5.02 10 4 10 C5.65 11.65 7.3 13.3 9 15 C8.01 15.33 7.02 15.66 6 16 C1.5467553 11.10143083 0 6.60452917 0 0 Z " fill="#5C5C5C" transform="translate(152,154)"/>
<path d="M0 0 C0.66 0 1.32 0 2 0 C1.98839844 0.83144531 1.97679687 1.66289063 1.96484375 2.51953125 C1.95582031 3.60621094 1.94679687 4.69289063 1.9375 5.8125 C1.92589844 6.89144531 1.91429687 7.97039062 1.90234375 9.08203125 C1.86375234 12.06512169 1.86375234 12.06512169 3 15 C4.61949011 12.42786866 5.04408751 11.32330841 4.625 8.25 C4.41875 7.5075 4.2125 6.765 4 6 C5.92863714 7.84258246 6.92009594 9.34878977 7.24755859 12.01757812 C7.29505495 14.43427459 7.26111304 16.83398212 7.1875 19.25 C7.17396484 20.09046875 7.16042969 20.9309375 7.14648438 21.796875 C7.11123464 23.86485938 7.0574302 25.93251271 7 28 C5.24925985 25.37388978 3.84229231 22.81797143 2.4375 20 C2.00308594 19.13375 1.56867188 18.2675 1.12109375 17.375 C-1.61980736 11.56849171 -1.49904989 6.18358081 0 0 Z " fill="#949494" transform="translate(178,100)"/>
<path d="M0 0 C-0.33 1.32 -0.66 2.64 -1 4 C-2.98 4.33 -4.96 4.66 -7 5 C-6.67 5.66 -6.34 6.32 -6 7 C0.66775095 7.44124822 5.59137372 7.3969534 11.34375 3.77734375 C13 3 13 3 16 4 C14.75443908 4.81928886 13.50333365 5.63015186 12.25 6.4375 C11.20585937 7.11619141 11.20585937 7.11619141 10.140625 7.80859375 C5.43282544 10.42881066 0.28191127 10.58149482 -5 10 C-7.5625 8.5 -7.5625 8.5 -9 7 C-8.02086745 1.32103121 -5.73500486 -0.46500039 0 0 Z " fill="#C4C4C4" transform="translate(378,168)"/>
<path d="M0 0 C-0.33 1.32 -0.66 2.64 -1 4 C-2.65 4.33 -4.3 4.66 -6 5 C-5.67 5.66 -5.34 6.32 -5 7 C1.6185694 7.49742902 6.28886202 6.90572854 12.1875 3.77734375 C13.0846875 3.39255859 13.0846875 3.39255859 14 3 C14.66 3.33 15.32 3.66 16 4 C14.75443908 4.81928886 13.50333365 5.63015186 12.25 6.4375 C11.20585937 7.11619141 11.20585937 7.11619141 10.140625 7.80859375 C6.6065391 9.77555762 3.44497461 10.15359582 -0.5625 10.1875 C-1.70912109 10.20876953 -1.70912109 10.20876953 -2.87890625 10.23046875 C-5 10 -5 10 -8 8 C-8.4409511 5.13381787 -8.41501866 3.63344953 -6.8125 1.1875 C-4.44017475 -0.36678206 -2.77958655 -0.22537188 0 0 Z " fill="#C5C5C5" transform="translate(322,168)"/>
<path d="M0 0 C1.75 0.9375 1.75 0.9375 2.75 3.9375 C2.09 3.9375 1.43 3.9375 0.75 3.9375 C0.75 3.2775 0.75 2.6175 0.75 1.9375 C-1.75965614 2.64089566 -1.75965614 2.64089566 -4.25 3.9375 C-4.94535873 5.96778196 -4.94535873 5.96778196 -5.25 7.9375 C1.90579491 8.29265894 7.1895244 7.86628375 13.75 4.9375 C14.74 4.6075 15.73 4.2775 16.75 3.9375 C16.75 4.5975 16.75 5.2575 16.75 5.9375 C10.93816202 9.40224956 7.04333128 11.07836169 0.1875 11.125 C-0.76253906 11.13917969 -1.71257812 11.15335938 -2.69140625 11.16796875 C-5.25 10.9375 -5.25 10.9375 -8.25 8.9375 C-7.9573985 5.42628203 -7.4400372 4.13267334 -4.9375 1.5625 C-2.25 -0.0625 -2.25 -0.0625 0 0 Z " fill="#C7C7C7" transform="translate(272.25,167.0625)"/>
<path d="M0 0 C0.33 0.99 0.66 1.98 1 3 C0.67 3.66 0.34 4.32 0 5 C2.31 3.35 4.62 1.7 7 0 C7.33 1.65 7.66 3.3 8 5 C13.77669279 5.46213542 16.40207206 4.44844595 21 1 C21.99 0.67 22.98 0.34 24 0 C22.59135042 4.22594874 20.16453812 4.97612654 16.34765625 6.984375 C13.34497901 8.28337015 11.22928346 8.51374964 8 8 C7.13375 7.649375 6.2675 7.29875 5.375 6.9375 C2.71112681 5.88597111 1.63555461 6.02386866 -1 7 C-1.625 5.1875 -1.625 5.1875 -2 3 C-1.34 2.01 -0.68 1.02 0 0 Z " fill="#C9C9C9" transform="translate(238,170)"/>
<path d="M0 0 C-1 3 -1 3 -3.046875 4.546875 C-6.14176839 8.4340611 -5.42506635 12.44240868 -5.25 17.25 C-5.23195312 18.18585938 -5.21390625 19.12171875 -5.1953125 20.0859375 C-5.14825673 22.39167015 -5.08253713 24.69530945 -5 27 C-7 25 -9 23 -11 21 C-10.34 19.68 -9.68 18.36 -9 17 C-8.67 17 -8.34 17 -8 17 C-7.81824219 15.17662109 -7.81824219 15.17662109 -7.6328125 13.31640625 C-7.46402922 11.73171883 -7.29473184 10.1470861 -7.125 8.5625 C-7.04636719 7.76005859 -6.96773437 6.95761719 -6.88671875 6.13085938 C-6.66154237 4.07829006 -6.33777413 2.03706991 -6 0 C-3.50907189 -1.24546405 -2.58919267 -0.7767578 0 0 Z " fill="#DFDFDF" transform="translate(180,159)"/>
<path d="M0 0 C1.485 0.99 1.485 0.99 3 2 C3.66 1.34 4.32 0.68 5 0 C5.99 3.96 6.98 7.92 8 12 C8.99 10.68 9.98 9.36 11 8 C10.44894091 11.9492568 9.61064629 15.34920174 8 19 C7.73316406 18.44441406 7.46632812 17.88882813 7.19140625 17.31640625 C5.42366451 13.87945263 3.36373652 10.63052515 1.33984375 7.33984375 C0 5 0 5 -1 2 C-0.67 1.34 -0.34 0.68 0 0 Z " fill="#BCBCBC" transform="translate(168,138)"/>
<path d="M0 0 C0.66 0.99 1.32 1.98 2 3 C2.66 2.34 3.32 1.68 4 1 C6.625 1.375 6.625 1.375 9 2 C9.33 2.99 9.66 3.98 10 5 C15.37992836 4.66009167 19.53273547 4.31442207 24 1 C23.08486681 3.28783297 22.34515354 4.73449728 20.375 6.25 C16.73193128 7.40044275 13.82858546 7.30385599 10 7 C8.25 5.4375 8.25 5.4375 7 4 C3.62919544 4.21747126 1.55390936 5.90214588 -1 8 C-1.125 2.25 -1.125 2.25 0 0 Z " fill="#DDDDDD" transform="translate(342,170)"/>
<path d="M0 0 C0.33 0 0.66 0 1 0 C1.33 3.3 1.66 6.6 2 10 C4.97 7.525 4.97 7.525 8 5 C6.81900117 10.58290357 5.49932403 12.62550698 1 16 C-0.33298974 18.61818456 -0.33298974 18.61818456 -1 21 C-1.67844036 18.88929666 -2.11681652 17.45892204 -1.5625 15.28125 C-0.82216979 12.27879969 -0.6533073 9.33296145 -0.4375 6.25 C-0.35371094 5.07953125 -0.26992187 3.9090625 -0.18359375 2.703125 C-0.12300781 1.81109375 -0.06242188 0.9190625 0 0 Z " fill="#D6D6D6" transform="translate(193,101)"/>
<path d="M0 0 C0.33 0 0.66 0 1 0 C1.33 3.63 1.66 7.26 2 11 C2.99 10.67 3.98 10.34 5 10 C5 13.3 5 16.6 5 20 C4.34 18.68 3.68 17.36 3 16 C2.34 16 1.68 16 1 16 C-0.86665742 12.10281829 -1.13965761 9.45915815 -0.625 5.1875 C-0.51414063 4.21167969 -0.40328125 3.23585938 -0.2890625 2.23046875 C-0.19367188 1.49441406 -0.09828125 0.75835937 0 0 Z " fill="#5D5D5D" transform="translate(190,69)"/>
<path d="M0 0 C2.125 0.375 2.125 0.375 4 1 C1.16956274 7.72228849 -2.26048688 11.54212574 -8 16 C-8.66 15.67 -9.32 15.34 -10 15 C-9.52949219 14.54109375 -9.05898437 14.0821875 -8.57421875 13.609375 C-3.96631602 9.08450705 -3.96631602 9.08450705 0 4 C-0.66 3.34 -1.32 2.68 -2 2 C-1.34 1.34 -0.68 0.68 0 0 Z " fill="#949494" transform="translate(210,95)"/>
<path d="M0 0 C3.31658613 4.9748792 4.38479461 11.03568353 4 17 C3.34 17 2.68 17 2 17 C1.67 15.02 1.34 13.04 1 11 C0.67 11.66 0.34 12.32 0 13 C-0.66 13 -1.32 13 -2 13 C-2.19294408 8.17639811 -1.75747614 4.50353262 0 0 Z " fill="#ADADAD" transform="translate(190,63)"/>
<path d="M0 0 C0.99 0.33 1.98 0.66 3 1 C4.80886571 5.76017293 5.20666253 9.93676791 5 15 C4.34 14.01 3.68 13.02 3 12 C2.34 12.66 1.68 13.32 1 14 C0.06380187 10.84493858 -0.1057123 8.03413498 -0.0625 4.75 C-0.05347656 3.85796875 -0.04445312 2.9659375 -0.03515625 2.046875 C-0.02355469 1.37140625 -0.01195312 0.6959375 0 0 Z " fill="#454545" transform="translate(179,103)"/>
<path d="M0 0 C0.66 0.33 1.32 0.66 2 1 C1.88601335 2.62580966 1.75844341 4.25067157 1.625 5.875 C1.55539063 6.77992188 1.48578125 7.68484375 1.4140625 8.6171875 C1 11 1 11 -1 13 C-1 10.03 -1 7.06 -1 4 C-4.78034623 7.47736026 -4.78034623 7.47736026 -7 12 C-7.66 12 -8.32 12 -9 12 C-7.50948318 7.39294801 -5.21457741 4.53603516 -2 1 C-1.34 0.67 -0.68 0.34 0 0 Z " fill="#ACACAC" transform="translate(189,165)"/>
<path d="M0 0 C0.99 0.99 1.98 1.98 3 3 C2.67 2.01 2.34 1.02 2 0 C4.4375 0.375 4.4375 0.375 7 1 C7.33 1.66 7.66 2.32 8 3 C6 6 6 6 2.875 6.6875 C1.92625 6.790625 0.9775 6.89375 0 7 C0 6.34 0 5.68 0 5 C-0.99 4.67 -1.98 4.34 -3 4 C-2.67 3.34 -2.34 2.68 -2 2 C-1.34 2 -0.68 2 0 2 C0 1.34 0 0.68 0 0 Z " fill="#888888" transform="translate(177,182)"/>
<path d="M0 0 C5.39286575 0.43142926 8.80486318 1.52110606 13 5 C13 5.99 13 6.98 13 8 C12.236875 7.67 11.47375 7.34 10.6875 7 C8.00930865 5.82563314 8.00930865 5.82563314 5 6 C2.3125 4.125 2.3125 4.125 0 2 C0 1.34 0 0.68 0 0 Z M9 8 C11 9 11 9 11 9 Z " fill="#505050" transform="translate(155,162)"/>
<path d="M0 0 C-0.8125 1.9375 -0.8125 1.9375 -2 4 C-2.99 4.33 -3.98 4.66 -5 5 C-5.61875 5.639375 -6.2375 6.27875 -6.875 6.9375 C-9.15239462 9.14791243 -11.01708098 10.00569366 -14 11 C-5.00842697 0 -5.00842697 0 0 0 Z " fill="#4B4B4B" transform="translate(193,147)"/>
<path d="M0 0 C6.26223021 2.69923716 9.94211018 5.52799707 14 11 C13.01 11 12.02 11 11 11 C10.195625 10.030625 9.39125 9.06125 8.5625 8.0625 C6.35801392 4.919482 6.35801392 4.919482 3.6875 4.125 C3.130625 4.08375 2.57375 4.0425 2 4 C1.67 4.99 1.34 5.98 1 7 C0.67 4.69 0.34 2.38 0 0 Z " fill="#A5A5A5" transform="translate(152,154)"/>
<path d="M0 0 C0.99 0 1.98 0 3 0 C3.48210937 0.91523438 3.96421875 1.83046875 4.4609375 2.7734375 C5.09876794 3.9740595 5.73679926 5.1745748 6.375 6.375 C6.69210938 6.97828125 7.00921875 7.5815625 7.3359375 8.203125 C8.7132062 10.78550382 9.91830581 12.91830581 12 15 C11.67 15.99 11.34 16.98 11 18 C5.45139319 9.91950464 5.45139319 9.91950464 3.3125 5.5625 C2.12530831 2.73132091 2.12530831 2.73132091 -1 1 C-0.67 0.67 -0.34 0.34 0 0 Z " fill="#C4C4C4" transform="translate(176,197)"/>
<path d="M0 0 C0.66 0.33 1.32 0.66 2 1 C1.88652381 2.97986082 1.7589065 4.95891598 1.625 6.9375 C1.55539063 8.03964844 1.48578125 9.14179688 1.4140625 10.27734375 C1.27742187 11.17582031 1.14078125 12.07429687 1 13 C0.01 13.495 0.01 13.495 -1 14 C-2.32 12.68 -3.64 11.36 -5 10 C-4.38125 9.95875 -3.7625 9.9175 -3.125 9.875 C-2.42375 9.58625 -1.7225 9.2975 -1 9 C0.3045656 6.00384054 0.3045656 6.00384054 1 3 C0.34 3 -0.32 3 -1 3 C-0.67 2.01 -0.34 1.02 0 0 Z " fill="#666666" transform="translate(187,168)"/>
<path d="M0 0 C0.66 0.99 1.32 1.98 2 3 C1.67 3.66 1.34 4.32 1 5 C2.32 5.33 3.64 5.66 5 6 C0.92630576 8.03684712 -1.58937864 8.0257259 -6 7 C-6 6.34 -6 5.68 -6 5 C-5.01 4.67 -4.02 4.34 -3 4 C-1.31461399 2.00334686 -1.31461399 2.00334686 0 0 Z " fill="#A7A7A7" transform="translate(180,152)"/>
<path d="M0 0 C0.99 0.33 1.98 0.66 3 1 C2.67 3.31 2.34 5.62 2 8 C1.01 8.33 0.02 8.66 -1 9 C-1.66 8.67 -2.32 8.34 -3 8 C-2.45276317 4.62537285 -1.9451 2.91765 0 0 Z " fill="#3C3C3C" transform="translate(185,170)"/>
<path d="M0 0 C0.99 0 1.98 0 3 0 C3.6875 1.75 3.6875 1.75 4 4 C2.5625 6.25 2.5625 6.25 1 8 C-0.89353366 6.10646634 -2.4198632 4.15473199 -4 2 C-3.34 1.67 -2.68 1.34 -2 1 C-1.34 1.33 -0.68 1.66 0 2 C0 1.34 0 0.68 0 0 Z " fill="#666666" transform="translate(169,134)"/>
<path d="M0 0 C1.92863714 1.84258246 2.92009594 3.34878977 3.24755859 6.01757812 C3.29505495 8.43427459 3.26111304 10.83398212 3.1875 13.25 C3.17396484 14.09046875 3.16042969 14.9309375 3.14648438 15.796875 C3.11123464 17.86485938 3.0574302 19.93251271 3 22 C1.26216175 19.39324263 0.49784095 17.98704569 0 15 C0.33 14.67 0.66 14.34 1 14 C1.33243079 9.26774995 1.18893275 4.60711442 0 0 Z " fill="#D3D3D3" transform="translate(182,106)"/>
<path d="M0 0 C2.97 0.495 2.97 0.495 6 1 C5.79375 1.5775 5.5875 2.155 5.375 2.75 C4.91338739 5.51967567 5.57055055 6.64561267 7 9 C3.64564078 7.61198929 1.88709697 6.11371 0 3 C0 2.01 0 1.02 0 0 Z " fill="#AFAFAF" transform="translate(157,185)"/>
<path d="M0 0 C0.33 3.63 0.66 7.26 1 11 C-1 9 -3 7 -5 5 C-2.74193548 0 -2.74193548 0 0 0 Z " fill="#CFCFCF" transform="translate(174,175)"/>
<path d="M0 0 C0.66 0.99 1.32 1.98 2 3 C1.34 4.32 0.68 5.64 0 7 C-2.4375 6.625 -2.4375 6.625 -5 6 C-5.33 5.34 -5.66 4.68 -6 4 C-5.01 3.01 -4.02 2.02 -3 1 C-2.67 1.66 -2.34 2.32 -2 3 C-1.34 2.01 -0.68 1.02 0 0 Z " fill="#8E8E8E" transform="translate(170,173)"/>
<path d="M0 0 C0.33 0.99 0.66 1.98 1 3 C0.67 3.66 0.34 4.32 0 5 C2.31 3.35 4.62 1.7 7 0 C6 4 6 4 4.1875 5.8125 C2 7 2 7 -0.25 6.6875 C-0.8275 6.460625 -1.405 6.23375 -2 6 C-1.125 1.125 -1.125 1.125 0 0 Z " fill="#DCDCDC" transform="translate(238,170)"/>
<path d="M0 0 C0.66 0.66 1.32 1.32 2 2 C-3.29230769 6.92307692 -3.29230769 6.92307692 -6.875 7.3125 C-7.926875 7.1578125 -7.926875 7.1578125 -9 7 C-6.19195732 4.03595495 -3.81684226 1.55500981 0 0 Z " fill="#868686" transform="translate(191,150)"/>
<path d="M0 0 C1.485 0.99 1.485 0.99 3 2 C3.66 1.34 4.32 0.68 5 0 C4.67 2.31 4.34 4.62 4 7 C3.01 7 2.02 7 1 7 C-0.0625 4.625 -0.0625 4.625 -1 2 C-0.67 1.34 -0.34 0.68 0 0 Z " fill="#9B9B9B" transform="translate(168,138)"/>
<path d="M0 0 C0.99 0.33 1.98 0.66 3 1 C1.02 3.31 -0.96 5.62 -3 8 C-3.66 7.34 -4.32 6.68 -5 6 C-5 5.34 -5 4.68 -5 4 C-2.6875 1.8125 -2.6875 1.8125 0 0 Z " fill="#5A5A5A" transform="translate(208,98)"/>
<path d="M0 0 C2.58926331 2.58926331 2.37398043 4.02705279 2.625 7.625 C2.69976562 8.62789062 2.77453125 9.63078125 2.8515625 10.6640625 C2.90054688 11.43492188 2.94953125 12.20578125 3 13 C1.12396022 10.18594033 0.50907198 8.59075334 -0.1875 5.375 C-0.36667969 4.57835938 -0.54585937 3.78171875 -0.73046875 2.9609375 C-0.81941406 2.31382813 -0.90835938 1.66671875 -1 1 C-0.67 0.67 -0.34 0.34 0 0 Z " fill="#7E7E7E" transform="translate(188,81)"/>
<path d="M0 0 C2 2 2 2 2.125 4.625 C2.08375 5.40875 2.0425 6.1925 2 7 C0.68 6.67 -0.64 6.34 -2 6 C-2.33 4.68 -2.66 3.36 -3 2 C-2.01 1.34 -1.02 0.68 0 0 Z " fill="#686868" transform="translate(168,169)"/>
<path d="M0 0 C2.4375 0.375 2.4375 0.375 5 1 C5.33 1.66 5.66 2.32 6 3 C5.01 3.99 4.02 4.98 3 6 C2.01 5.34 1.02 4.68 0 4 C0 2.66666667 0 1.33333333 0 0 Z " fill="#717171" transform="translate(179,182)"/>
<path d="M0 0 C1.9375 0.75 1.9375 0.75 4 2 C4.75 4.125 4.75 4.125 5 6 C3.02 5.34 1.04 4.68 -1 4 C-0.67 2.68 -0.34 1.36 0 0 Z " fill="#797979" transform="translate(169,190)"/>
<path d="M0 0 C0.33 0 0.66 0 1 0 C0.88601335 1.62580966 0.75844341 3.25067157 0.625 4.875 C0.52058594 6.23238281 0.52058594 6.23238281 0.4140625 7.6171875 C0 10 0 10 -2 12 C-2.05422947 10.5629191 -2.09289723 9.12524538 -2.125 7.6875 C-2.14820313 6.88699219 -2.17140625 6.08648437 -2.1953125 5.26171875 C-2 3 -2 3 0 0 Z " fill="#919191" transform="translate(190,166)"/>
<path d="M0 0 C2.3431213 0.25561323 4.67843403 0.59270772 7 1 C7.33 1.66 7.66 2.32 8 3 C6.68 3.99 5.36 4.98 4 6 C2.62437146 4.71034824 1.29233607 3.37310707 0 2 C0 1.34 0 0.68 0 0 Z " fill="#353535" transform="translate(155,162)"/>
<path d="M0 0 C0.99 0.33 1.98 0.66 3 1 C2.34 3.97 1.68 6.94 1 10 C0.67 10 0.34 10 0 10 C0 6.7 0 3.4 0 0 Z " fill="#616161" transform="translate(179,103)"/>
<path d="M0 0 C0.66 0 1.32 0 2 0 C2 0.66 2 1.32 2 2 C3.32 1.67 4.64 1.34 6 1 C5.54625 1.433125 5.0925 1.86625 4.625 2.3125 C2.79975666 4.10798342 2.79975666 4.10798342 1 7 C0.67 4.69 0.34 2.38 0 0 Z " fill="#D5D5D5" transform="translate(175,187)"/>
<path d="M0 0 C1.32 0 2.64 0 4 0 C4 2.31 4 4.62 4 7 C2 5.1875 2 5.1875 0 3 C0 2.01 0 1.02 0 0 Z " fill="#D3D3D3" transform="translate(170,143)"/>
<path d="M0 0 C2.475 0.495 2.475 0.495 5 1 C5.33 1.99 5.66 2.98 6 4 C6.66 4.33 7.32 4.66 8 5 C5 5 5 5 2.3125 2.5 C1.549375 1.675 0.78625 0.85 0 0 Z " fill="#BEBEBE" transform="translate(346,171)"/>
<path d="M0 0 C1.32 0.33 2.64 0.66 4 1 C3.34 2.32 2.68 3.64 2 5 C0.68 4.34 -0.64 3.68 -2 3 C-1.34 2.01 -0.68 1.02 0 0 Z " fill="#AAAAAA" transform="translate(210,95)"/>
</svg>
